<svg width="100" height="40" viewBox="100 0 69 40" fill="none" xmlns="http://www.w3.org/2000/svg">
  <g clip-path="url(#clip0_802_9192)">
    <path d="M123.798 19.2785C123.798 14.4375 121.229 12.089 115.952 12.089C112.984 12.089 110.283 12.9263 108.149 14.342L109.954 17.8024C111.681 16.7567 113.245 16.2796 114.855 16.2796C116.466 16.2796 118.39 16.7976 118.39 19.2805V19.5453L115.212 19.6563C109.97 19.8335 106.957 22.2034 106.957 26.1662C106.957 30.129 109.641 32.5554 113.473 32.5554C115.597 32.5554 117.397 31.9128 118.964 30.5847C119.352 31.6304 119.862 32.1523 121.171 32.1523H124.244C123.944 31.1377 123.796 29.9771 123.796 28.2518V19.2785H123.798ZM118.392 27.1535C117.523 27.876 116.446 28.244 115.173 28.244C113.37 28.244 112.293 27.3346 112.293 25.8001C112.293 24.8362 112.659 23.5412 115.87 23.4419L118.392 23.3679V27.1554V27.1535Z" fill="#ffffff"/>
    <path d="M154.467 31.2565H158.152C159.68 31.2565 160.358 31.3831 160.784 31.5759C160.13 29.5448 158.068 27.9616 150.8 27.4183C151.961 28.762 153.18 30.0492 154.465 31.2565H154.467Z" fill="#ffffff"/>
    <path d="M150.801 27.4203C143.747 19.224 138.996 8.73765 137.091 0C137.091 0 133.214 3.4195 132.907 10.611C132.566 18.4704 136.782 26.394 150.666 27.4047C150.711 27.4125 150.758 27.4125 150.801 27.4183V27.4203Z" fill="#ffffff"/>
    <path d="M154.465 31.2565C148.991 31.2565 139.541 31.2565 139.541 31.2565C139.74 31.72 140.423 32.0452 141.979 32.1367C151.295 32.6897 152.613 40 165.947 40C167.117 40 167.847 39.9299 168.585 39.7916C163.316 38.1715 158.584 35.1258 154.465 31.2546V31.2565Z" fill="#ffffff"/>
  </g>
  <defs>
    <clipPath id="clip0_802_9192">
      <rect width="168.131" height="60" fill="white" transform="translate(0.454071)"/>
    </clipPath>
  </defs>
</svg>
