<svg width="374" height="89" viewBox="0 0 374 89" fill="none" xmlns="http://www.w3.org/2000/svg">
<path d="M95.1153 73.4682H106.584V69.3468V30.6416H95.1153V73.4682Z" fill="white"/>
<path d="M100.849 12.9017C97.2656 12.9017 94.2194 15.7688 94.2194 19.3526C94.2194 22.9364 97.0864 25.8035 100.849 25.8035C104.612 25.8035 107.479 22.9364 107.479 19.3526C107.479 15.7688 104.612 12.9017 100.849 12.9017Z" fill="white"/>
<path d="M224.312 64.6879C215.711 64.6879 212.664 57.6995 212.664 51.607C212.664 44.081 217.682 38.7053 224.491 38.7053C228.433 38.7053 232.375 39.9596 235.242 42.2891L235.601 32.792C231.838 30.6417 227.896 29.5665 223.237 29.5665C217.144 29.5665 211.41 31.896 207.468 36.0174C203.347 40.1388 201.196 45.8729 201.196 52.1446C201.196 58.237 203.167 63.792 206.572 67.7342C210.335 72.0347 215.711 74.3642 222.341 74.3642C228.433 74.3642 234.526 72.0347 237.751 69.8844L234.347 61.6417C231.838 63.0752 228.433 64.6879 224.312 64.6879Z" fill="white"/>
<path d="M23.7974 13.9769L0.860962 73.4683H12.6876L18.0633 58.9538H38.1326L43.8667 73.4683H56.2309L32.3985 13.9769H23.7974ZM21.6471 49.0983L26.4852 36.1966C27.202 34.2255 27.7396 32.4336 28.2771 31C28.8147 32.6128 29.3523 34.4047 30.0691 36.3758L34.5488 49.0983H21.6471Z" fill="white"/>
<path d="M69.6702 58.4162L59.4564 30.6416H47.809L63.3986 68.8092C64.6529 71.8555 66.4448 73.4682 69.8494 73.4682H73.9708L91.7107 30.6416H80.0633L69.6702 58.4162Z" fill="white"/>
<path d="M149.052 45.3353C149.052 34.7631 143.497 29.5665 131.849 29.5665C125.399 29.5665 119.485 31.3584 114.826 34.4047L118.768 41.9307C122.532 39.6012 125.936 38.5261 129.52 38.5261C133.104 38.5261 137.225 39.6012 137.225 45.1561V45.6937L130.237 45.8729C118.768 46.2313 112.318 51.4278 112.318 60.0289C112.318 68.2717 118.231 74.0058 126.474 74.0058C131.133 74.0058 135.075 72.5723 138.479 69.7052C139.375 72.0347 140.451 73.1099 143.318 73.1099H149.948C149.231 70.9596 149.052 68.4509 149.052 64.6879V45.3353ZM137.584 62.5376C135.612 64.1503 133.104 64.8671 130.416 64.8671C126.474 64.8671 124.144 62.896 124.144 59.4914C124.144 57.3411 124.861 54.474 132.029 54.2948L137.584 54.1157V62.5376Z" fill="white"/>
<path d="M276.636 45.3353C276.636 34.7631 271.081 29.5665 259.433 29.5665C252.982 29.5665 247.069 31.3584 242.41 34.4047L246.352 41.9307C250.115 39.6012 253.52 38.5261 257.104 38.5261C260.688 38.5261 264.809 39.6012 264.809 45.1561V45.6937L257.82 45.8729C246.352 46.2313 239.901 51.4278 239.901 60.0289C239.901 68.2717 245.815 74.0058 254.057 74.0058C258.716 74.0058 262.659 72.5723 266.063 69.7052C266.959 72.0347 268.034 73.1099 270.901 73.1099H277.531C276.815 70.9596 276.636 68.4509 276.636 64.6879V45.3353ZM264.988 62.5376H264.809C262.838 64.1503 260.508 64.8671 257.82 64.8671C253.878 64.8671 251.549 62.896 251.549 59.4914C251.549 57.3411 252.266 54.474 259.433 54.2948L264.988 54.1157V62.5376Z" fill="white"/>
<path d="M182.202 29.7456C177.185 29.7456 172.705 31.3583 167.867 34.9421V34.7629C166.971 32.0751 164.82 30.8208 161.416 30.8208H156.757V73.6473H168.404V44.0809C172.167 41.2138 175.393 39.9595 178.439 39.9595C182.381 39.9595 184.173 42.6473 184.173 48.5606V73.6473H195.82V45.3352C195.82 33.867 188.832 29.7456 182.202 29.7456Z" fill="white"/>
<path d="M356.116 68.8093C354.683 64.3295 350.203 60.9249 334.255 59.6705C336.763 62.7168 339.451 65.5838 342.318 68.0925H350.382C353.787 68.0925 355.22 68.4509 356.116 68.8093Z" fill="white"/>
<path d="M334.255 59.8497C318.844 41.9306 308.451 19.1734 304.33 0C304.33 0 295.908 7.52601 295.191 23.1156C294.474 40.3179 303.613 57.5202 333.896 59.6705L334.255 59.8497Z" fill="white"/>
<path d="M342.318 68.0925C330.312 68.0925 309.706 68.0925 309.706 68.0925C310.064 69.1677 311.677 69.8844 315.081 70.0636C335.33 71.318 338.197 87.2659 367.405 87.2659C369.914 87.2659 371.526 87.0868 373.139 86.7284C361.492 83.3237 351.278 76.5145 342.318 68.0925Z" fill="white"/>
</svg>
